<mxfile host="app.diagrams.net" modified="2023-02-21T12:14:21.677Z" agent="5.0 (Windows NT 6.1; WOW64) AppleWebKit/537.36 (KHTML, like Gecko) Chrome/86.0.4240.198 Safari/537.36" etag="nsAR2oHMAtQHYre07ZlY" version="20.8.21" type="github">
  <diagram name="第 1 页" id="pT8ZbqHC3ATKMNTix457">
    <mxGraphModel dx="1386" dy="1905" grid="1" gridSize="10" guides="1" tooltips="1" connect="1" arrows="1" fold="1" page="1" pageScale="1" pageWidth="827" pageHeight="1169" math="0" shadow="0">
      <root>
        <mxCell id="0" />
        <mxCell id="1" parent="0" />
        <mxCell id="Ilk_Vb8Y_KArp8zagEo2-5" style="edgeStyle=orthogonalEdgeStyle;rounded=0;orthogonalLoop=1;jettySize=auto;html=1;entryX=0.5;entryY=0;entryDx=0;entryDy=0;fontSize=19;" edge="1" parent="1" source="Ilk_Vb8Y_KArp8zagEo2-1" target="Ilk_Vb8Y_KArp8zagEo2-2">
          <mxGeometry relative="1" as="geometry">
            <Array as="points">
              <mxPoint x="423" y="-40" />
              <mxPoint x="260" y="-40" />
            </Array>
          </mxGeometry>
        </mxCell>
        <mxCell id="Ilk_Vb8Y_KArp8zagEo2-8" style="edgeStyle=orthogonalEdgeStyle;rounded=0;orthogonalLoop=1;jettySize=auto;html=1;exitX=0.5;exitY=1;exitDx=0;exitDy=0;entryX=0.5;entryY=0;entryDx=0;entryDy=0;fontSize=19;" edge="1" parent="1">
          <mxGeometry relative="1" as="geometry">
            <mxPoint x="423" y="-111" as="sourcePoint" />
            <mxPoint x="610" y="9" as="targetPoint" />
            <Array as="points">
              <mxPoint x="423" y="-41" />
              <mxPoint x="610" y="-41" />
            </Array>
          </mxGeometry>
        </mxCell>
        <mxCell id="Ilk_Vb8Y_KArp8zagEo2-1" value="&lt;font style=&quot;font-size: 19px;&quot;&gt;通用竞赛服务平台&lt;/font&gt;" style="rounded=0;whiteSpace=wrap;html=1;strokeWidth=2;" vertex="1" parent="1">
          <mxGeometry x="320" y="-170" width="206" height="60" as="geometry" />
        </mxCell>
        <mxCell id="Ilk_Vb8Y_KArp8zagEo2-2" value="赛事举办方" style="rounded=0;whiteSpace=wrap;html=1;strokeWidth=3;fontSize=19;" vertex="1" parent="1">
          <mxGeometry x="200" y="20" width="120" height="60" as="geometry" />
        </mxCell>
        <mxCell id="Ilk_Vb8Y_KArp8zagEo2-3" value="参赛选手" style="rounded=0;whiteSpace=wrap;html=1;strokeWidth=3;fontSize=19;" vertex="1" parent="1">
          <mxGeometry x="550" y="10" width="120" height="60" as="geometry" />
        </mxCell>
      </root>
    </mxGraphModel>
  </diagram>
</mxfile>
